# xmcd
# 
# Track frame offsets:
#     150
#     25083
#     38348
#     53777
#     85616
#     170034
#     190311
#     207759
#     229175
#     252238
#     305209
# 
# Disc length: 4370
# 
# Revision: 2
# Processed by: cddbd v1.5.2PL0 Copyright (c) Steve Scherf et al.
# Submitted via: fre:ac v1.0.31
# 
DISCID=8a11100b
DTITLE=Pentangle - Cruel Sister
DYEAR=2017
DGENRE=Folk
TTITLE0=A Maid That's Deep In Love
TTITLE1=When I Was In My Prime
TTITLE2=Lord Franklin
TTITLE3=Cruel Sister
TTITLE4=Jack Orion
TTITLE5=Will The Circle Be Unbroken? [Take 1]
TTITLE6=Rain And Snow [Take 2]
TTITLE7=Omie Wise [Take 2, Live Vox]
TTITLE8=John's Song (alias So Clear) [Take 7]
TTITLE9=Reflection [Olympic Studios, Take 1]
TTITLE10=When I Get Home [Alternate Vocal]
EXTD=
EXTT0=
EXTT1=
EXTT2=
EXTT3=
EXTT4=
EXTT5=
EXTT6=
EXTT7=
EXTT8=
EXTT9=
EXTT10=
PLAYORDER=
